<?xml version="1.0" standalone="no"?>
<!DOCTYPE svg PUBLIC "-//W3C//DTD SVG 20010904//EN"
 "http://www.w3.org/TR/2001/REC-SVG-20010904/DTD/svg10.dtd">
<svg version="1.0" xmlns="http://www.w3.org/2000/svg"
 width="512.000000pt" height="512.000000pt" viewBox="0 0 512.000000 512.000000"
 preserveAspectRatio="xMidYMid meet">

<g transform="translate(0.000000,512.000000) scale(0.100000,-0.100000)"
fill="#000000" stroke="none">
<path d="M1859 4930 c-351 -60 -656 -292 -805 -614 -69 -151 -110 -362 -98
-511 l5 -60 -46 -35 c-145 -111 -264 -325 -296 -531 -15 -96 -6 -253 21 -349
46 -167 164 -345 292 -445 l65 -50 143 -825 c174 -1008 174 -1009 210 -1079
56 -111 148 -190 268 -230 62 -21 72 -21 960 -19 l897 3 78 37 c129 62 212
161 250 298 9 30 87 467 173 970 l158 915 71 70 c133 131 233 305 277 481 32
126 32 341 0 467 -40 162 -126 322 -236 444 -60 67 -192 166 -272 206 -61 30
-62 31 -74 86 -16 78 -89 225 -147 296 -92 113 -223 200 -373 246 -62 20 -97
24 -200 24 -137 -1 -193 -13 -312 -67 l-67 -31 -86 70 c-141 115 -311 194
-488 228 -83 16 -287 19 -368 5z m370 -301 c154 -39 290 -124 407 -254 73 -82
107 -99 170 -85 21 5 49 18 63 30 134 109 276 144 426 104 141 -36 265 -151
312 -286 8 -23 18 -75 23 -116 13 -99 37 -131 127 -167 184 -73 320 -199 398
-368 177 -388 -20 -836 -430 -975 l-80 -27 -1140 0 c-1088 0 -1143 1 -1195 19
-99 34 -173 79 -245 151 -254 254 -209 678 94 879 98 66 107 87 91 230 -28
245 44 463 207 637 79 83 135 125 228 172 169 85 354 104 544 56z m1446 -3190
c-74 -431 -140 -806 -146 -832 -6 -27 -23 -62 -36 -78 -48 -57 -72 -63 -255
-67 -158 -4 -168 -3 -168 14 0 38 90 1611 96 1660 l5 52 242 5 c191 4 258 9
317 24 41 10 76 16 78 12 1 -3 -58 -359 -133 -790z m-2028 753 l302 -4 5 -52
c6 -49 96 -1622 96 -1660 0 -17 -10 -18 -167 -14 -131 3 -175 7 -198 20 -39
21 -71 56 -84 91 -6 15 -72 379 -146 810 -74 430 -138 793 -141 806 -4 20 -2
22 13 16 10 -5 154 -10 320 -13z m1229 -79 c-6 -70 -96 -1615 -96 -1642 0 -8
-65 -11 -220 -11 -155 0 -220 3 -220 11 0 25 -90 1570 -95 1642 l-6 77 321 0
322 0 -6 -77z"/>
<path d="M1977 3874 c-155 -37 -310 -169 -333 -281 -14 -69 42 -150 113 -162
64 -12 96 3 158 74 68 77 119 101 196 92 64 -8 111 -37 150 -93 36 -53 80 -77
137 -76 115 1 170 128 102 235 -109 172 -325 259 -523 211z"/>
<path d="M3136 3419 c-96 -33 -190 -110 -230 -188 -51 -98 15 -211 122 -211
56 0 77 12 132 72 39 43 51 51 91 55 58 7 108 -15 133 -58 26 -43 73 -69 126
-69 121 0 180 123 111 231 -33 51 -91 107 -141 136 -92 55 -239 68 -344 32z"/>
</g>
</svg>
